<?xml version="1.0" encoding="UTF-8" standalone="no" ?>
<!DOCTYPE svg PUBLIC "-//W3C//DTD SVG 1.1//EN" "http://www.w3.org/Graphics/SVG/1.1/DTD/svg11.dtd">
<svg xmlns="http://www.w3.org/2000/svg" xmlns:xlink="http://www.w3.org/1999/xlink" version="1.1" width="512" height="512" viewBox="0 0 512 512" xml:space="preserve">
<desc>Created with Fabric.js 4.6.0</desc>
<defs>
</defs>
<g transform="matrix(1 0 0 1 258.02 256)" id="t64t9Y32jk2ndAMTgSDfl"  >
<path style="stroke: rgb(64,58,157); stroke-width: 0; stroke-dasharray: none; stroke-linecap: butt; stroke-dashoffset: 0; stroke-linejoin: miter; stroke-miterlimit: 4; fill: rgb(162,174,179); fill-rule: nonzero; opacity: 1;" vector-effect="non-scaling-stroke"  transform=" translate(-125.98, -128)" d="M 123.96205 0 C 194.61805 0 251.96205 57.344 251.96205 128 C 251.96205 198.656 194.61805 256 123.96205 256 C 64.35432 256 14.220960000000005 215.18732 0 160 L 68.53278 160 C 79.60391 179.12509 100.28857 192 123.96205 192 C 159.29005 192 187.96205 163.328 187.96205 128 C 187.96205 92.672 159.29005 64 123.96205 64 C 100.28857 64 79.60390000000001 76.87491 68.53278 96 L 0 96 C 14.22096 40.81268 64.35432 0 123.96205 0 z" stroke-linecap="round" />
</g>
<g transform="matrix(1 0 0 1 256 49.76)" id="4TIWhhWSqJmGQapOBpztH"  >
<path style="stroke: rgb(240,93,1); stroke-width: 0; stroke-dasharray: none; stroke-linecap: butt; stroke-dashoffset: 0; stroke-linejoin: miter; stroke-miterlimit: 4; fill: rgb(239,71,111); fill-rule: nonzero; opacity: 1;" vector-effect="non-scaling-stroke"  transform=" translate(-156.95, -49.76)" d="M 156.95454 0 C 216.08502000000001 0 270.55387 20.08088 313.90907000000004 53.79062 L 268.18482000000006 99.51486 C 236.79544000000007 77.15505 198.40192000000008 63.99999 156.95454000000007 63.99999 C 115.50716000000006 63.99999 77.11363000000007 77.15505999999999 45.72425000000007 99.51488 L 7.105427357601002e-14 53.79063000000001 C 43.355200000000075 20.080880000000008 97.82405000000007 7.105427357601002e-15 156.95454000000007 7.105427357601002e-15 z" stroke-linecap="round" />
</g>
<g transform="matrix(-1 0 0 -1 256 461.74)" id="kIhmskCpxuOuRuchwaqPV"  >
<path style="stroke: rgb(240,93,1); stroke-width: 0; stroke-dasharray: none; stroke-linecap: butt; stroke-dashoffset: 0; stroke-linejoin: miter; stroke-miterlimit: 4; fill: rgb(6,214,160); fill-rule: nonzero; opacity: 1;" vector-effect="non-scaling-stroke"  transform=" translate(-156.95, -49.76)" d="M 156.95454 0 C 216.08502000000001 0 270.55387 20.08088 313.90907000000004 53.79062 L 268.18482000000006 99.51486 C 236.79544000000007 77.15505 198.40192000000008 63.99999 156.95454000000007 63.99999 C 115.50716000000006 63.99999 77.11363000000007 77.15505999999999 45.72425000000007 99.51488 L 7.105427357601002e-14 53.79063000000001 C 43.355200000000075 20.080880000000008 97.82405000000007 7.105427357601002e-15 156.95454000000007 7.105427357601002e-15 z" stroke-linecap="round" />
</g>
<g transform="matrix(0 -1 1 0 49.76 256.47)" id="lyKo0Gwzn9NWaVPDEC9Ky"  >
<path style="stroke: rgb(240,93,1); stroke-width: 0; stroke-dasharray: none; stroke-linecap: butt; stroke-dashoffset: 0; stroke-linejoin: miter; stroke-miterlimit: 4; fill: rgb(17,138,178); fill-rule: nonzero; opacity: 1;" vector-effect="non-scaling-stroke"  transform=" translate(-156.95, -49.76)" d="M 156.95454 0 C 216.08502000000001 0 270.55387 20.08088 313.90907000000004 53.79062 L 268.18482000000006 99.51486 C 236.79544000000007 77.15505 198.40192000000008 63.99999 156.95454000000007 63.99999 C 115.50716000000006 63.99999 77.11363000000007 77.15505999999999 45.72425000000007 99.51488 L 7.105427357601002e-14 53.79063000000001 C 43.355200000000075 20.080880000000008 97.82405000000007 7.105427357601002e-15 156.95454000000007 7.105427357601002e-15 z" stroke-linecap="round" />
</g>
<g transform="matrix(0 1 -1 0 461.74 256.47)" id="rbLfgwiBko4Su6pGlVxdK"  >
<path style="stroke: rgb(240,93,1); stroke-width: 0; stroke-dasharray: none; stroke-linecap: butt; stroke-dashoffset: 0; stroke-linejoin: miter; stroke-miterlimit: 4; fill: rgb(255,209,102); fill-rule: nonzero; opacity: 1;" vector-effect="non-scaling-stroke"  transform=" translate(-156.95, -49.76)" d="M 156.95454 0 C 216.08502000000001 0 270.55387 20.08088 313.90907000000004 53.79062 L 268.18482000000006 99.51486 C 236.79544000000007 77.15505 198.40192000000008 63.99999 156.95454000000007 63.99999 C 115.50716000000006 63.99999 77.11363000000007 77.15505999999999 45.72425000000007 99.51488 L 7.105427357601002e-14 53.79063000000001 C 43.355200000000075 20.080880000000008 97.82405000000007 7.105427357601002e-15 156.95454000000007 7.105427357601002e-15 z" stroke-linecap="round" />
</g>
</svg>